<svg width="151" height="92" viewBox="0 0 151 92" fill="none" xmlns="http://www.w3.org/2000/svg">
<path fill-rule="evenodd" clip-rule="evenodd" d="M131.789 91.7762C137.754 89.1075 143.677 86.5197 149.561 83.6792C150.828 83.0726 151.356 81.5666 150.747 80.3131C150.139 79.0495 148.617 78.5237 147.36 79.1302C141.507 81.9506 135.634 84.5181 129.71 87.1666C128.432 87.7428 127.864 89.2389 128.432 90.5025C129.01 91.7762 130.511 92.3524 131.789 91.7762Z" fill="#82C7FF"/>
<path fill-rule="evenodd" clip-rule="evenodd" d="M87.9694 60.2069C96.6319 41.516 104.341 22.4003 112.598 3.53751C113.156 2.2537 112.567 0.767685 111.289 0.211704C110.001 -0.344273 108.51 0.23196 107.942 1.51577C99.7058 20.3483 92.0171 39.4335 83.3648 58.084C82.7765 59.3577 83.3341 60.8539 84.602 61.4402C85.8801 62.0265 87.3811 61.4705 87.9694 60.2069Z" fill="#82C7FF"/>
<path fill-rule="evenodd" clip-rule="evenodd" d="M13.6487 55.3542C10.8795 38.1694 7.62353 21.0352 5.04711 3.82006C4.83409 2.44527 3.54604 1.4952 2.16654 1.69738C0.776897 1.89956 -0.176442 3.19331 0.0264254 4.56809C2.61299 21.8034 5.86902 38.9579 8.64831 56.1629C8.87146 57.5377 10.1697 58.4779 11.5492 58.2555C12.9388 58.0331 13.8718 56.7391 13.6487 55.3542Z" fill="#82C7FF"/>
</svg>
