<svg width="155" height="154" viewBox="0 0 155 154" fill="none" xmlns="http://www.w3.org/2000/svg">
<g clip-path="url(#clip0_706_8553)">
<path d="M4.83953 0.0139717L-0.00195312 4.82422L1.0464 5.86581L5.88788 1.05556L4.83953 0.0139717Z" fill="#B3DFFF"/>
<path d="M23.488 0.00322955L18.6465 4.81348L19.6948 5.85507L24.5363 1.04482L23.488 0.00322955Z" fill="#B3DFFF"/>
<path d="M42.1188 0.0110397L37.2773 4.82129L38.3257 5.86288L43.1672 1.05263L42.1188 0.0110397Z" fill="#B3DFFF"/>
<path d="M60.7477 0.017876L55.9062 4.82812L56.9546 5.86971L61.7961 1.05947L60.7477 0.017876Z" fill="#B3DFFF"/>
<path d="M79.3981 0.00615711L74.5566 4.81641L75.605 5.858L80.4465 1.04775L79.3981 0.00615711Z" fill="#B3DFFF"/>
<path d="M98.027 0.0139695L93.1855 4.82422L94.2339 5.86581L99.0754 1.05556L98.027 0.0139695Z" fill="#B3DFFF"/>
<path d="M116.675 0.00323448L111.834 4.81348L112.882 5.85507L117.724 1.04482L116.675 0.00323448Z" fill="#B3DFFF"/>
<path d="M135.306 0.0100711L130.465 4.82031L131.513 5.8619L136.355 1.05166L135.306 0.0100711Z" fill="#B3DFFF"/>
<path d="M153.935 0.0178831L149.094 4.82812L150.142 5.86971L154.984 1.05947L153.935 0.0178831Z" fill="#B3DFFF"/>
<path d="M4.83172 18.5247L-0.00976562 23.335L1.03859 24.3765L5.88007 19.5663L4.83172 18.5247Z" fill="#B3DFFF"/>
<path d="M23.4802 18.513L18.6387 23.3232L19.687 24.3648L24.5285 19.5546L23.4802 18.513Z" fill="#B3DFFF"/>
<path d="M42.111 18.5198L37.2695 23.3301L38.3179 24.3717L43.1594 19.5614L42.111 18.5198Z" fill="#B3DFFF"/>
<path d="M60.7399 18.5276L55.8984 23.3379L56.9468 24.3795L61.7883 19.5692L60.7399 18.5276Z" fill="#B3DFFF"/>
<path d="M79.3903 18.5169L74.5488 23.3271L75.5972 24.3687L80.4387 19.5585L79.3903 18.5169Z" fill="#B3DFFF"/>
<path d="M98.0192 18.5237L93.1777 23.334L94.2261 24.3756L99.0676 19.5653L98.0192 18.5237Z" fill="#B3DFFF"/>
<path d="M116.67 18.513L111.828 23.3232L112.876 24.3648L117.718 19.5546L116.67 18.513Z" fill="#B3DFFF"/>
<path d="M135.298 18.5198L130.457 23.3301L131.505 24.3717L136.347 19.5614L135.298 18.5198Z" fill="#B3DFFF"/>
<path d="M153.927 18.5276L149.086 23.3379L150.134 24.3795L154.976 19.5692L153.927 18.5276Z" fill="#B3DFFF"/>
<path d="M4.84344 37.053L0.00195312 41.8633L1.05031 42.9049L5.89179 38.0946L4.84344 37.053Z" fill="#B3DFFF"/>
<path d="M23.4919 37.0413L18.6504 41.8516L19.6987 42.8932L24.5402 38.0829L23.4919 37.0413Z" fill="#B3DFFF"/>
<path d="M42.1227 37.0491L37.2812 41.8594L38.3296 42.901L43.1711 38.0907L42.1227 37.0491Z" fill="#B3DFFF"/>
<path d="M60.7516 37.056L55.9102 41.8662L56.9585 42.9078L61.8 38.0976L60.7516 37.056Z" fill="#B3DFFF"/>
<path d="M79.402 37.0452L74.5605 41.8555L75.6089 42.8971L80.4504 38.0868L79.402 37.0452Z" fill="#B3DFFF"/>
<path d="M98.0309 37.053L93.1895 41.8633L94.2378 42.9049L99.0793 38.0946L98.0309 37.053Z" fill="#B3DFFF"/>
<path d="M116.679 37.0413L111.838 41.8516L112.886 42.8932L117.728 38.0829L116.679 37.0413Z" fill="#B3DFFF"/>
<path d="M135.31 37.0491L130.469 41.8594L131.517 42.901L136.359 38.0907L135.31 37.0491Z" fill="#B3DFFF"/>
<path d="M153.939 37.056L149.098 41.8662L150.146 42.9078L154.987 38.0976L153.939 37.056Z" fill="#B3DFFF"/>
<path d="M4.83562 55.5628L-0.00585938 60.373L1.0425 61.4146L5.88398 56.6044L4.83562 55.5628Z" fill="#B3DFFF"/>
<path d="M23.4841 55.5511L18.6426 60.3613L19.6909 61.4029L24.5324 56.5927L23.4841 55.5511Z" fill="#B3DFFF"/>
<path d="M42.1149 55.5589L37.2734 60.3691L38.3218 61.4107L43.1633 56.6005L42.1149 55.5589Z" fill="#B3DFFF"/>
<path d="M60.7438 55.5667L55.9023 60.377L56.9507 61.4185L61.7922 56.6083L60.7438 55.5667Z" fill="#B3DFFF"/>
<path d="M79.3942 55.555L74.5527 60.3652L75.6011 61.4068L80.4426 56.5966L79.3942 55.555Z" fill="#B3DFFF"/>
<path d="M98.0231 55.5628L93.1816 60.373L94.23 61.4146L99.0715 56.6044L98.0231 55.5628Z" fill="#B3DFFF"/>
<path d="M116.672 55.5511L111.83 60.3613L112.878 61.4029L117.72 56.5927L116.672 55.5511Z" fill="#B3DFFF"/>
<path d="M135.302 55.5589L130.461 60.3691L131.509 61.4107L136.351 56.6005L135.302 55.5589Z" fill="#B3DFFF"/>
<path d="M153.933 55.5657L149.092 60.376L150.14 61.4176L154.982 56.6073L153.933 55.5657Z" fill="#B3DFFF"/>
<path d="M4.82781 74.0726L-0.0136719 78.8828L1.03468 79.9244L5.87617 75.1142L4.82781 74.0726Z" fill="#B3DFFF"/>
<path d="M23.4763 74.0609L18.6348 78.8711L19.6831 79.9127L24.5246 75.1024L23.4763 74.0609Z" fill="#B3DFFF"/>
<path d="M42.1071 74.0687L37.2656 78.8789L38.314 79.9205L43.1555 75.1102L42.1071 74.0687Z" fill="#B3DFFF"/>
<path d="M60.736 74.0755L55.8945 78.8857L56.9429 79.9273L61.7844 75.1171L60.736 74.0755Z" fill="#B3DFFF"/>
<path d="M79.3864 74.0648L74.5449 78.875L75.5933 79.9166L80.4348 75.1063L79.3864 74.0648Z" fill="#B3DFFF"/>
<path d="M98.0153 74.0726L93.1738 78.8828L94.2222 79.9244L99.0637 75.1142L98.0153 74.0726Z" fill="#B3DFFF"/>
<path d="M116.666 74.0608L111.824 78.8711L112.873 79.9127L117.714 75.1024L116.666 74.0608Z" fill="#B3DFFF"/>
<path d="M135.295 74.0687L130.453 78.8789L131.501 79.9205L136.343 75.1103L135.295 74.0687Z" fill="#B3DFFF"/>
<path d="M153.925 74.0755L149.084 78.8857L150.132 79.9273L154.974 75.1171L153.925 74.0755Z" fill="#B3DFFF"/>
<path d="M4.83953 92.6009L-0.00195312 97.4111L1.0464 98.4527L5.88788 93.6425L4.83953 92.6009Z" fill="#B3DFFF"/>
<path d="M23.488 92.5892L18.6465 97.3994L19.6948 98.441L24.5363 93.6308L23.488 92.5892Z" fill="#B3DFFF"/>
<path d="M42.1188 92.597L37.2773 97.4072L38.3257 98.4488L43.1672 93.6386L42.1188 92.597Z" fill="#B3DFFF"/>
<path d="M60.7477 92.6048L55.9062 97.415L56.9546 98.4566L61.7961 93.6464L60.7477 92.6048Z" fill="#B3DFFF"/>
<path d="M79.3981 92.5931L74.5566 97.4033L75.605 98.4449L80.4465 93.6347L79.3981 92.5931Z" fill="#B3DFFF"/>
<path d="M98.027 92.6009L93.1855 97.4111L94.2339 98.4527L99.0754 93.6425L98.027 92.6009Z" fill="#B3DFFF"/>
<path d="M116.677 92.5892L111.836 97.3994L112.884 98.441L117.726 93.6308L116.677 92.5892Z" fill="#B3DFFF"/>
<path d="M135.306 92.597L130.465 97.4072L131.513 98.4488L136.355 93.6386L135.306 92.597Z" fill="#B3DFFF"/>
<path d="M153.935 92.6048L149.094 97.415L150.142 98.4566L154.984 93.6464L153.935 92.6048Z" fill="#B3DFFF"/>
<path d="M4.83172 111.111L-0.00976562 115.921L1.03859 116.962L5.88007 112.152L4.83172 111.111Z" fill="#B3DFFF"/>
<path d="M23.4802 111.099L18.6387 115.909L19.687 116.951L24.5285 112.141L23.4802 111.099Z" fill="#B3DFFF"/>
<path d="M42.111 111.107L37.2695 115.917L38.3179 116.959L43.1594 112.148L42.111 111.107Z" fill="#B3DFFF"/>
<path d="M60.7419 111.115L55.9004 115.925L56.9487 116.966L61.7902 112.156L60.7419 111.115Z" fill="#B3DFFF"/>
<path d="M79.3903 111.103L74.5488 115.913L75.5972 116.955L80.4387 112.144L79.3903 111.103Z" fill="#B3DFFF"/>
<path d="M98.0192 111.111L93.1777 115.921L94.2261 116.962L99.0676 112.152L98.0192 111.111Z" fill="#B3DFFF"/>
<path d="M116.67 111.099L111.828 115.909L112.876 116.951L117.718 112.141L116.67 111.099Z" fill="#B3DFFF"/>
<path d="M135.299 111.107L130.457 115.917L131.505 116.959L136.347 112.148L135.299 111.107Z" fill="#B3DFFF"/>
<path d="M153.929 111.115L149.088 115.925L150.136 116.966L154.978 112.156L153.929 111.115Z" fill="#B3DFFF"/>
<path d="M4.84344 129.639L0.00195312 134.449L1.0503 135.491L5.89179 130.681L4.84344 129.639Z" fill="#B3DFFF"/>
<path d="M23.4919 129.628L18.6504 134.438L19.6987 135.48L24.5402 130.67L23.4919 129.628Z" fill="#B3DFFF"/>
<path d="M42.1227 129.636L37.2812 134.446L38.3296 135.488L43.1711 130.678L42.1227 129.636Z" fill="#B3DFFF"/>
<path d="M60.7516 129.643L55.9102 134.453L56.9585 135.495L61.8 130.684L60.7516 129.643Z" fill="#B3DFFF"/>
<path d="M79.402 129.631L74.5605 134.441L75.6089 135.483L80.4504 130.673L79.402 129.631Z" fill="#B3DFFF"/>
<path d="M98.0309 129.639L93.1895 134.449L94.2378 135.491L99.0793 130.681L98.0309 129.639Z" fill="#B3DFFF"/>
<path d="M116.679 129.628L111.838 134.438L112.886 135.48L117.728 130.67L116.679 129.628Z" fill="#B3DFFF"/>
<path d="M135.31 129.635L130.469 134.445L131.517 135.487L136.359 130.677L135.31 129.635Z" fill="#B3DFFF"/>
<path d="M153.939 129.643L149.098 134.453L150.146 135.495L154.987 130.684L153.939 129.643Z" fill="#B3DFFF"/>
<path d="M4.83562 148.15L-0.00585938 152.96L1.04249 154.002L5.88397 149.191L4.83562 148.15Z" fill="#B3DFFF"/>
<path d="M23.4841 148.138L18.6426 152.948L19.6909 153.99L24.5324 149.18L23.4841 148.138Z" fill="#B3DFFF"/>
<path d="M42.1149 148.145L37.2734 152.955L38.3218 153.997L43.1633 149.186L42.1149 148.145Z" fill="#B3DFFF"/>
<path d="M60.7438 148.153L55.9023 152.963L56.9507 154.004L61.7922 149.194L60.7438 148.153Z" fill="#B3DFFF"/>
<path d="M79.3942 148.142L74.5527 152.952L75.6011 153.994L80.4426 149.183L79.3942 148.142Z" fill="#B3DFFF"/>
<path d="M98.0231 148.149L93.1816 152.959L94.23 154.001L99.0715 149.19L98.0231 148.149Z" fill="#B3DFFF"/>
<path d="M116.674 148.138L111.832 152.948L112.88 153.99L117.722 149.18L116.674 148.138Z" fill="#B3DFFF"/>
<path d="M135.302 148.145L130.461 152.955L131.509 153.997L136.351 149.186L135.302 148.145Z" fill="#B3DFFF"/>
<path d="M153.933 148.153L149.092 152.963L150.14 154.004L154.982 149.194L153.933 148.153Z" fill="#B3DFFF"/>
</g>
<defs>
<clipPath id="clip0_706_8553">
<rect width="155" height="154" fill="white"/>
</clipPath>
</defs>
</svg>
