<svg width="55" height="42" viewBox="0 0 55 42" fill="none" xmlns="http://www.w3.org/2000/svg">
<path d="M54.9753 25.0586C54.9317 25.5284 54.8233 25.9876 54.6219 26.4138C54.1508 27.4133 53.2063 28.134 52.1735 28.5259C49.4122 29.5743 46.4842 28.7626 43.8806 27.6705C40.4178 26.2181 37.3741 24.2632 34.4004 22.0054C33.3418 21.2016 32.2691 20.4141 31.2389 19.5745C28.0816 16.9994 25.294 13.8068 22.3424 10.9923C21.2643 9.96443 20.1632 8.91389 19.479 7.59085C18.5972 5.88484 18.6539 2.91734 20.0575 1.457C21.4447 0.0140225 23.8963 -0.127487 25.762 0.0697847C26.6586 0.164475 27.5389 0.374899 28.4071 0.616886C37.0187 3.02097 44.4949 8.5972 50.4029 15.3092C52.5364 17.7327 54.5641 20.4861 54.9459 23.6925C54.9995 24.1438 55.0174 24.6062 54.9753 25.0586ZM33.9171 19.8501C34.4451 20.2683 34.8758 20.6581 35.3527 20.978C36.629 21.8334 37.9179 22.6719 39.2162 23.4936C41.1183 24.6972 43.0955 25.752 45.2647 26.4006C46.4153 26.7446 47.5643 27.0955 48.7228 27.4122C48.9884 27.4848 49.3107 27.5001 49.5684 27.4196C50.3198 27.1844 51.0713 26.9298 51.7859 26.6031C52.6052 26.2286 53.4798 25.2859 53.2505 23.9681C53.1579 23.4363 53.0449 22.907 52.9776 22.3715C52.8934 21.7003 52.7278 21.0511 52.3597 20.4893C51.7917 19.6223 51.2554 18.7128 50.5581 17.9579C48.9226 16.1877 47.2073 14.4912 45.5087 12.7799C44.5427 11.8072 43.572 10.8361 42.5523 9.92129C42.0722 9.49045 41.6137 8.97543 40.8843 8.79394C40.747 8.94913 40.5782 9.08117 40.4867 9.25372C40.0776 10.0244 39.6795 10.8014 39.2967 11.5857C38.7509 12.7036 38.3207 13.8867 37.4188 14.7984C37.2763 14.9425 37.1854 15.1414 37.0823 15.3213C36.3587 16.5859 35.5757 17.8101 34.6249 18.92C34.4104 19.1699 34.2242 19.4445 33.9171 19.8501ZM39.181 7.66976C38.9665 7.1195 38.5268 6.88488 38.0851 6.6492C37.3158 6.23888 36.5149 5.87642 35.7871 5.40192C34.2705 4.41398 32.5246 3.96472 30.9013 3.23087C30.1845 2.90682 29.4284 2.67062 28.7074 2.35498C28.0948 2.08722 27.4858 1.82998 26.8127 1.76527C25.3987 1.62955 24.0057 1.60325 22.619 2.05776C21.3974 2.45862 20.7679 3.04517 20.6443 4.30508C20.4371 6.41037 21.084 8.14952 22.9171 9.35683C23.3299 9.62827 23.7133 9.96127 24.0567 10.3179C25.4102 11.7246 26.7785 13.1197 28.0727 14.5801C29.3752 16.0493 30.9155 17.2572 32.3127 18.6197C32.3937 18.6986 32.5341 18.717 32.6419 18.7617C35.4495 15.457 37.4278 11.6815 39.181 7.66976Z" fill="#C7F2DA"/>
<path d="M0.0312429 32.3371C0.127476 27.9209 0.366743 23.5093 0.527658 19.0957C0.618106 16.6169 0.684891 14.1371 0.686994 11.6567C0.689097 9.39044 0.114329 6.82906 1.29805 4.82267C2.45547 2.85994 3.99993 1.56741 6.30952 1.2139C7.12093 1.08975 7.91603 1.09396 8.7206 1.52638C10.4197 2.43909 11.6418 3.29341 12.4385 5.14146C13.1773 6.85483 13.3293 8.78547 13.3435 10.6309C13.3708 14.2875 13.0022 17.9378 13.018 21.5945C13.0311 24.6483 13.3135 27.6983 13.2593 30.7521C13.1841 35.0211 12.8744 40.3327 7.94127 41.7678C5.21783 42.56 1.96642 41.2749 0.731692 38.7209C-0.00346402 37.2 -0.0181882 35.443 0.00600147 33.7533C0.0123118 33.2814 0.0212515 32.809 0.0312429 32.3371ZM2.16309 21.9275C1.78657 22.5351 1.84705 23.17 1.83022 23.7776C1.76922 26.0228 1.69718 28.2681 1.68771 30.5138C1.68035 32.2593 1.80656 34.0053 1.78552 35.7497C1.77132 36.9081 2.3077 37.8271 2.83146 38.7698C2.94873 38.9807 3.13541 39.1664 3.32472 39.3216C4.12929 39.9829 5.05849 40.2817 6.10075 40.2406C6.90112 40.2091 7.6552 39.9802 8.39194 39.6983C9.74341 39.1812 9.72395 39.1591 10.578 37.9854C10.8619 37.5951 10.9855 37.1806 11.0633 36.725C11.1259 36.3578 11.1969 35.988 11.3136 35.6355C11.6044 34.757 11.7412 33.8569 11.7464 32.9358C11.759 30.6895 11.7859 28.4427 11.7659 26.197C11.7575 25.2416 11.6607 24.2863 11.5771 23.3331C11.5424 22.938 11.26 22.7492 10.8845 22.807C7.6957 23.2973 5.14316 23.098 2.16309 21.9275ZM2.2751 19.7101C3.06337 20.1589 3.81009 20.8264 4.65095 21.1563C5.384 21.444 6.19488 21.4367 6.9821 21.4256C8.09483 21.4098 9.22228 21.3914 10.2924 21.0879C10.6368 20.99 10.9834 20.8569 11.2395 20.6071C11.8195 20.0405 11.4709 18.8911 11.566 18.1656C11.86 15.9262 11.7501 13.6752 11.8258 11.43C11.8753 9.96068 11.7038 8.5156 11.4188 7.08998C11.0249 5.11884 9.96637 3.66481 7.95232 3.04932C7.25292 2.83574 6.53091 2.75526 5.86359 3.00566C4.10037 3.66639 2.76678 4.80215 2.33032 6.72647C2.00586 8.1563 1.94118 9.62243 2.10735 11.0733C2.38343 13.4842 2.24355 15.8941 2.21042 18.3056C2.20411 18.7985 2.11156 19.2961 2.2751 19.7101Z" fill="#C7F2DA"/>
</svg>
