<svg width="38" height="40" viewBox="0 0 38 40" fill="none" xmlns="http://www.w3.org/2000/svg">
<path d="M37.2955 23.3847C38.2764 21.5699 38.3001 19.1861 36.9395 17.5405C35.3732 15.6489 32.5096 15.5489 30.4449 16.71C27.6367 18.2941 26.284 21.4392 25.9517 24.6381C22.7559 24.1306 19.7024 22.5619 17.6061 20.155C16.2455 18.594 15.3991 16.6408 15.0906 14.6107C16.8625 14.6107 18.6187 14.3339 20.2482 13.7341C22.2022 13.019 23.9267 11.8732 25.1291 10.1815C26.4501 8.32826 27.0276 5.65995 25.6828 3.66831C24.4092 1.77665 21.8224 1.13071 19.647 1.70744C17.3372 2.32262 15.4624 4.10662 14.2441 6.04443C13.0971 7.8592 12.4959 9.92772 12.3772 12.0347C11.3251 11.8578 10.2889 11.5887 9.31587 11.2503C5.08373 9.76624 1.16011 5.92908 2.18057 1.2153C2.44162 0.000327989 0.543087 -0.53026 0.250397 0.700092C-0.944095 5.6907 2.28341 10.4583 6.77659 12.6729C8.509 13.5265 10.4471 14.134 12.4405 14.4185C12.6146 15.9641 13.0418 17.4867 13.7062 18.8862C15.6839 23.0463 19.9556 25.9223 24.4804 26.9066C24.9234 27.0065 25.3901 27.0834 25.8806 27.1526C25.9359 28.0446 26.0625 28.9059 26.2523 29.7056C27.344 34.2579 30.524 38.1335 34.9935 39.9175C36.3699 40.4635 37.3904 38.1412 36.014 37.5645C31.8214 35.8266 28.8945 31.6896 28.4277 27.3295C31.9479 27.3526 35.6738 26.3837 37.2955 23.3847ZM21.9807 4.0528C23.982 4.46804 24.2905 6.39815 23.5548 8.01299C22.9378 9.35868 21.7987 10.3737 20.4777 11.0504C18.8006 11.9194 16.91 12.2731 15.0036 12.2654C15.0352 11.6887 15.0985 11.1042 15.225 10.5429C15.8421 7.75154 18.3814 3.29921 21.9807 4.0528ZM29.1001 22.2235C29.7093 20.6933 30.793 18.9477 32.5333 18.5017C34.2657 18.0634 35.5947 19.1784 35.4523 20.8855C35.1913 24.0076 31.3863 24.815 28.4515 24.838C28.5622 23.9537 28.7679 23.0694 29.1001 22.2235Z" fill="#B6ECDA"/>
</svg>
