<svg width="53" height="52" viewBox="0 0 53 52" fill="none" xmlns="http://www.w3.org/2000/svg">
<path d="M20.6651 49.6619C20.6071 49.7389 20.5537 49.8228 20.5096 49.9114C20.2798 50.3753 20.3099 50.9348 20.0987 51.408C19.4463 52.872 17.285 51.2472 16.7279 50.5128C15.5532 48.9649 14.3646 47.4263 13.227 45.8504C12.837 45.3119 12.5584 44.6871 12.2706 44.081C11.6252 42.7126 10.7639 41.519 9.70763 40.428C6.95896 37.5886 5.44534 34.1291 3.52777 30.7488C1.45699 27.0958 0.126767 22.9766 0.00837037 18.7594C-0.13092 13.8312 1.4686 8.78882 4.77907 5.14747C8.08954 1.50612 13.1643 -0.575653 18.0233 0.140029C24.3447 1.07251 27.0841 5.8072 29.3522 11.162C29.4358 11.3601 29.5333 11.5723 29.7237 11.6725C29.9535 11.7914 30.2297 11.7052 30.4735 11.6166C33.1247 10.6398 35.8037 9.58843 38.622 9.41359C42.7427 9.15716 46.9423 10.9149 49.6608 14.0364C52.3792 17.1579 53.5539 21.5709 52.7507 25.6388C50.601 36.5256 38.4711 39.9594 29.8513 43.9901C26.9471 45.3492 24.2495 47.1023 21.5845 48.8857C21.2502 49.1071 20.9043 49.3449 20.6651 49.6619ZM19.0656 47.6688C20.0801 46.0649 21.473 45.3282 22.8032 44.5053C23.184 44.2699 23.5554 44.0181 23.9361 43.7826C26.1625 42.4026 28.5049 41.2183 30.9773 40.4024C33.8931 39.4419 36.73 38.3556 39.3393 36.7237C41.6817 35.2574 43.987 33.7351 45.9603 31.7792C46.6428 31.1032 47.2882 30.3502 47.7873 29.5296C48.8877 27.7229 49.4658 25.7157 49.7652 23.6223C50.1877 20.6733 49.28 18.095 47.3509 15.9713C45.9394 14.4164 44.0543 13.3184 42.0323 12.7892C38.4386 11.8497 39.0143 11.5606 34.8588 12.8824C34.4317 13.0176 34.0184 13.2041 33.582 13.2997C31.6668 13.7193 29.7631 16.5215 28.0731 14.2998C27.242 13.2088 26.6964 12.4255 26.2066 11.197C25.2803 7.10336 22.4643 3.72776 18.3645 2.70669C16.628 2.27542 14.8057 2.20548 13.0738 2.85589C9.35011 4.25695 6.67342 6.84692 4.83014 10.3484C4.6212 10.7424 4.41923 11.1597 4.31941 11.5909C3.84582 13.6307 3.33973 15.6659 2.9799 17.7267C2.62703 19.7525 2.78954 21.7877 3.66242 23.6666C4.60495 25.6971 5.32462 27.8325 6.59681 29.7161C7.30022 30.7605 7.80631 31.9401 8.37044 33.0754C9.30601 34.9637 10.4319 36.6911 11.9548 38.1854C13.3315 39.5375 14.469 41.0901 15.4069 42.8245C16.3077 44.5006 17.422 46.0882 19.0656 47.6688Z" fill="#F7CBCB"/>
<path d="M20.1924 24.7856C21.5876 24.4989 22.6671 24.8672 23.5841 25.7508C23.7397 25.9 23.9602 25.9955 24.1668 26.0725C24.652 26.252 25.1999 26.3242 25.6224 26.5947C26.0449 26.8651 26.3467 27.3243 26.7785 27.7836C27.1244 27.5878 27.4796 27.4735 27.7187 27.2381C29.8685 25.1027 31.4517 22.5826 32.6519 19.8085C32.6821 19.7409 32.7007 19.6663 32.7332 19.5987C33.2207 18.5846 33.8382 18.207 34.6229 18.4354C35.5794 18.7152 36.2387 19.4518 36.1574 20.3843C35.9508 22.7691 35.6676 25.1493 35.4076 27.5295C35.3449 28.1099 35.2451 28.6881 35.1754 29.1753C35.7697 29.8584 36.4476 29.8607 37.1139 29.9516C37.9961 30.0728 38.8829 30.2197 39.7372 30.4598C40.1434 30.574 40.6147 30.8561 40.812 31.2011C41.0488 31.6138 41.1626 32.2012 41.0813 32.6721C40.9838 33.2409 40.4081 33.4508 39.8579 33.4508C39.4168 33.4508 38.9247 33.4531 38.5463 33.2666C37.288 32.6418 35.9415 32.6768 34.6043 32.5882C34.0843 32.5532 33.5527 32.5696 33.0489 32.4577C31.5817 32.1313 31.0803 31.2524 31.4842 29.8141C31.6862 29.0937 31.916 28.3804 32.1017 27.6554C32.1691 27.3919 32.1435 27.1029 32.1737 26.625C31.2962 27.0819 30.9503 27.7463 30.5115 28.3314C29.5968 29.5483 28.4639 30.5064 27.0316 31.0683C26.1494 31.4156 25.3067 31.5065 24.5243 30.7885C24.2597 30.5461 23.9045 30.2663 23.5772 30.25C22.2214 30.1777 21.4228 29.3432 20.7751 28.2172C20.2737 28.3314 19.8512 28.427 19.4286 28.5272C19.2847 28.5622 19.1454 28.6298 19.0015 28.6554C17.4577 28.9212 16.55 28.0773 16.7403 26.5061C16.9121 25.0934 17.1489 23.6876 17.3439 22.2796C17.3718 22.0721 17.323 21.853 17.3091 21.6432C16.6335 21.5756 16.6034 22.1257 16.413 22.4824C15.9232 23.4056 15.5633 24.4196 14.9597 25.2542C13.604 27.1238 11.5773 27.3686 9.64813 26.0585C8.91221 25.5573 8.11361 25.1493 7.36841 24.6598C6.87393 24.3334 6.3957 23.9674 5.9639 23.5618C5.53906 23.1631 5.52746 22.6293 5.70853 22.0978C5.92211 21.473 6.59303 21.1886 7.15483 21.5056C8.38755 22.2003 9.6017 22.93 10.8414 23.6154C11.9418 24.2238 12.6522 24.0839 13.2883 22.9999C13.8524 22.0371 14.3608 21.0114 14.7113 19.9554C15.2406 18.3655 16.1484 16.9994 16.9934 15.5913C17.07 15.4631 17.1466 15.3326 17.2395 15.216C17.7061 14.6425 18.3515 14.4117 19.034 14.5353C19.7815 14.6705 20.1785 15.3046 20.1994 16.0086C20.2574 17.9505 20.2458 19.8971 20.2203 21.8413C20.2087 22.7225 19.8442 23.5944 20.1924 24.7856Z" fill="#F7CBCB"/>
</svg>
