<svg width="69" height="35" viewBox="0 0 69 35" fill="none" xmlns="http://www.w3.org/2000/svg">
<path fill-rule="evenodd" clip-rule="evenodd" d="M65.8482 4.73195C52.7947 29.1619 26.7191 39.094 2.50049 25.3406C1.69424 24.8826 0.671837 25.1689 0.216814 25.9704C-0.238208 26.7861 0.0462116 27.8165 0.852455 28.2745C26.8115 43.0298 54.8082 32.5108 68.8001 6.33485C69.2381 5.51908 68.9324 4.48851 68.1176 4.04485C67.3028 3.6155 66.2861 3.91619 65.8482 4.73195Z" fill="#B1EFCD"/>
<path d="M22.8823 14.863C25.5787 14.863 27.7646 12.663 27.7646 9.94906C27.7646 7.23516 25.5787 5.03516 22.8823 5.03516C20.1858 5.03516 18 7.23516 18 9.94906C18 12.663 20.1858 14.863 22.8823 14.863Z" fill="#B1EFCD"/>
<path d="M43.0935 9.63573C45.7372 9.63573 47.8804 7.47872 47.8804 4.81786C47.8804 2.15701 45.7372 0 43.0935 0C40.4498 0 38.3066 2.15701 38.3066 4.81786C38.3066 7.47872 40.4498 9.63573 43.0935 9.63573Z" fill="#B1EFCD"/>
</svg>
