<svg width="89" height="91" viewBox="0 0 89 91" fill="none" xmlns="http://www.w3.org/2000/svg">
<path d="M47.4399 47.4309C48.4683 48.6019 48.8302 50.2156 48.153 51.6936C47.8806 52.1434 47.6083 52.5897 47.3359 53.0395C45.4869 53.0574 43.6414 53.0753 41.7924 53.0931C39.2194 51.8971 38.363 47.7879 38.6067 45.3138C39.2875 38.427 47.121 34.7319 53.1053 38.1236C63.1784 43.8358 60.9889 58.2055 50.8227 62.2041C45.512 64.2926 38.8468 64.7174 33.9769 61.3365C29.6122 58.3055 27.3618 53.0645 26.9569 47.9129C26.577 43.0575 27.6736 37.406 30.0601 33.1147C33.9088 26.1851 42.1256 26.1779 48.927 27.863C50.665 28.295 51.9586 26.3314 49.8157 25.7995C43.3512 24.2001 36.0374 23.9145 30.4866 28.1951C25.3049 32.1936 23.4953 40.2763 23.5562 46.5098C23.6852 60.2655 35.4604 68.2161 48.4898 65.2529C53.8937 64.0248 59.2008 61.3758 61.6554 56.1563C64.1101 50.9403 63.3002 44.4462 59.577 40.0371C52.6251 31.8009 35.7363 33.2396 35.2131 45.885C34.9802 51.4794 39.4846 56.5954 45.2719 56.2848C50.2672 56.017 54.0012 50.5262 50.3389 46.3599C49.4466 45.3495 46.2681 46.0992 47.4399 47.4309Z" fill="#B4EBAC"/>
<path d="M25.9828 78.5381C24.854 82.1332 23.7217 85.7283 22.5929 89.3235C22.0625 91.0121 25.3486 91.4834 25.8216 89.9803C26.9504 86.3852 28.0827 82.7901 29.2115 79.195C29.7383 77.5063 26.4522 77.0351 25.9828 78.5381Z" fill="#B4EBAC"/>
<path d="M45.6786 80.2614C46.0727 83.6887 46.9113 86.9875 48.2443 90.1756C48.8177 91.5537 52.1216 91.1074 51.473 89.5544C50.2224 86.5627 49.3982 83.4852 49.0291 80.2614C48.8464 78.6905 45.503 78.7369 45.6786 80.2614Z" fill="#B4EBAC"/>
<path d="M61.4489 73.19C64.3801 75.7319 67.4977 78.0168 70.8268 80.0196C71.9771 80.7122 74.9011 79.552 73.1918 78.5238C70.0599 76.6388 67.1 74.5145 64.3371 72.1225C63.7387 71.6049 62.7927 71.4264 62.0473 71.7441C61.542 71.9619 60.8182 72.6438 61.4489 73.19Z" fill="#B4EBAC"/>
<path d="M74.2965 57.8456C78.2276 59.8627 82.2768 61.5657 86.4874 62.9152C87.9064 63.3722 90.2608 61.7442 88.1752 61.073C84.2083 59.7985 80.3669 58.2383 76.6616 56.3355C76.0022 55.9963 74.9272 55.8107 74.2965 56.3355C73.7984 56.7532 73.5619 57.4708 74.2965 57.8456Z" fill="#B4EBAC"/>
<path d="M13.7244 58.6128C9.6572 60.3621 5.44306 61.6938 1.11066 62.6077C-1.06807 63.0683 0.354549 64.7391 1.99935 64.3928C6.85851 63.3682 11.5313 61.883 16.0895 59.923C16.8241 59.6088 16.5517 58.984 16.0895 58.6128C15.4803 58.1201 14.3659 58.3379 13.7244 58.6128Z" fill="#B4EBAC"/>
<path d="M2.21482 30.8543C6.1172 31.0828 10.0196 31.3113 13.9184 31.5398C15.9968 31.6612 15.9717 29.3084 13.9184 29.187C10.016 28.9586 6.11361 28.7301 2.21482 28.5016C0.132835 28.3802 0.161502 30.7329 2.21482 30.8543Z" fill="#B4EBAC"/>
<path d="M19.8087 4.67142C21.4965 7.42756 23.1879 10.1837 24.8757 12.9434C25.6103 14.1429 28.9035 13.6646 28.1044 12.3579C26.4166 9.60178 24.7252 6.84562 23.0374 4.08592C22.2992 2.88636 19.006 3.36476 19.8087 4.67142Z" fill="#B4EBAC"/>
<path d="M48.757 11.4013C49.2874 8.0597 50.0256 4.77162 50.9537 1.51924C51.4303 -0.144437 48.1443 -0.569289 47.725 0.887322C46.736 4.34677 45.9691 7.84907 45.4065 11.4013C45.17 12.9222 48.5062 12.99 48.757 11.4013Z" fill="#B4EBAC"/>
<path d="M64.0478 20.7658C67.4198 18.6808 70.6593 16.4209 73.7984 14.004C74.447 13.5041 73.6658 12.8437 73.1964 12.6544C72.4438 12.351 71.5301 12.5295 70.9065 13.0079C67.943 15.2892 64.8613 17.4027 61.6791 19.3698C60.0093 20.4016 62.9728 21.4298 64.0478 20.7658Z" fill="#B4EBAC"/>
<path d="M72.0706 34.7815C76.2561 34.5851 80.2695 33.7176 84.1217 32.0575C86.132 31.1899 83.7921 29.7048 82.4339 30.2903C79.1157 31.7219 75.6863 32.568 72.0742 32.7358C70.0495 32.8286 70.0065 34.8779 72.0706 34.7815Z" fill="#B4EBAC"/>
</svg>
